<?xml version="1.0" encoding="UTF-8"?>
<!DOCTYPE svg PUBLIC "-//W3C//DTD SVG 1.1//EN" "http://www.w3.org/Graphics/SVG/1.1/DTD/svg11.dtd">
<svg width="160mm" height="90mm" viewBox="0 0 16000 9000" version="1.1" baseProfile="tiny" xmlns="http://www.w3.org/2000/svg" stroke-width="28.222" stroke-linejoin="round" xml:space="preserve">
 <path fill="rgb(255,255,255)" stroke="none" d="M 8000,8999 L 0,8999 0,0 15999,0 15999,8999 8000,8999 Z"/>
 <path fill="none" stroke="rgb(179,179,179)" stroke-linejoin="round" d="M 7364,8172 L 2053,8172 2053,1500 12675,1500 12675,8172 7364,8172 Z"/>
 <path fill="none" stroke="rgb(179,179,179)" stroke-linejoin="round" d="M 12675,8171 L 2053,8171"/>
 <path fill="none" stroke="rgb(179,179,179)" stroke-linejoin="round" d="M 12675,7058 L 2053,7058"/>
 <path fill="none" stroke="rgb(179,179,179)" stroke-linejoin="round" d="M 12675,5946 L 2053,5946"/>
 <path fill="none" stroke="rgb(179,179,179)" stroke-linejoin="round" d="M 12675,4834 L 2053,4834"/>
 <path fill="none" stroke="rgb(179,179,179)" stroke-linejoin="round" d="M 12675,3723 L 2053,3723"/>
 <path fill="none" stroke="rgb(179,179,179)" stroke-linejoin="round" d="M 12675,2611 L 2053,2611"/>
 <path fill="none" stroke="rgb(179,179,179)" stroke-linejoin="round" d="M 12675,1499 L 2053,1499"/>
 <path fill="none" stroke="rgb(179,179,179)" stroke-linejoin="round" d="M 2053,8321 L 2053,8171"/>
 <path fill="none" stroke="rgb(179,179,179)" stroke-linejoin="round" d="M 2053,8321 L 2053,8171"/>
 <path fill="none" stroke="rgb(179,179,179)" stroke-linejoin="round" d="M 2938,8321 L 2938,8171"/>
 <path fill="none" stroke="rgb(179,179,179)" stroke-linejoin="round" d="M 2938,8321 L 2938,8171"/>
 <path fill="none" stroke="rgb(179,179,179)" stroke-linejoin="round" d="M 3823,8321 L 3823,8171"/>
 <path fill="none" stroke="rgb(179,179,179)" stroke-linejoin="round" d="M 3823,8321 L 3823,8171"/>
 <path fill="none" stroke="rgb(179,179,179)" stroke-linejoin="round" d="M 4708,8321 L 4708,8171"/>
 <path fill="none" stroke="rgb(179,179,179)" stroke-linejoin="round" d="M 4708,8321 L 4708,8171"/>
 <path fill="none" stroke="rgb(179,179,179)" stroke-linejoin="round" d="M 5594,8321 L 5594,8171"/>
 <path fill="none" stroke="rgb(179,179,179)" stroke-linejoin="round" d="M 5594,8321 L 5594,8171"/>
 <path fill="none" stroke="rgb(179,179,179)" stroke-linejoin="round" d="M 6479,8321 L 6479,8171"/>
 <path fill="none" stroke="rgb(179,179,179)" stroke-linejoin="round" d="M 6479,8321 L 6479,8171"/>
 <path fill="none" stroke="rgb(179,179,179)" stroke-linejoin="round" d="M 7364,8321 L 7364,8171"/>
 <path fill="none" stroke="rgb(179,179,179)" stroke-linejoin="round" d="M 7364,8321 L 7364,8171"/>
 <path fill="none" stroke="rgb(179,179,179)" stroke-linejoin="round" d="M 8248,8321 L 8248,8171"/>
 <path fill="none" stroke="rgb(179,179,179)" stroke-linejoin="round" d="M 8248,8321 L 8248,8171"/>
 <path fill="none" stroke="rgb(179,179,179)" stroke-linejoin="round" d="M 9134,8321 L 9134,8171"/>
 <path fill="none" stroke="rgb(179,179,179)" stroke-linejoin="round" d="M 9134,8321 L 9134,8171"/>
 <path fill="none" stroke="rgb(179,179,179)" stroke-linejoin="round" d="M 10019,8321 L 10019,8171"/>
 <path fill="none" stroke="rgb(179,179,179)" stroke-linejoin="round" d="M 10019,8321 L 10019,8171"/>
 <path fill="none" stroke="rgb(179,179,179)" stroke-linejoin="round" d="M 10904,8321 L 10904,8171"/>
 <path fill="none" stroke="rgb(179,179,179)" stroke-linejoin="round" d="M 10904,8321 L 10904,8171"/>
 <path fill="none" stroke="rgb(179,179,179)" stroke-linejoin="round" d="M 11789,8321 L 11789,8171"/>
 <path fill="none" stroke="rgb(179,179,179)" stroke-linejoin="round" d="M 11789,8321 L 11789,8171"/>
 <path fill="none" stroke="rgb(179,179,179)" stroke-linejoin="round" d="M 12675,8321 L 12675,8171"/>
 <path fill="none" stroke="rgb(179,179,179)" stroke-linejoin="round" d="M 12675,8321 L 12675,8171"/>
 <path fill="none" stroke="rgb(179,179,179)" stroke-linejoin="round" d="M 2053,8171 L 12675,8171"/>
 <path fill="none" stroke="rgb(179,179,179)" stroke-linejoin="round" d="M 1903,8171 L 2053,8171"/>
 <path fill="none" stroke="rgb(179,179,179)" stroke-linejoin="round" d="M 1903,8171 L 2053,8171"/>
 <path fill="none" stroke="rgb(179,179,179)" stroke-linejoin="round" d="M 1903,7058 L 2053,7058"/>
 <path fill="none" stroke="rgb(179,179,179)" stroke-linejoin="round" d="M 1903,7058 L 2053,7058"/>
 <path fill="none" stroke="rgb(179,179,179)" stroke-linejoin="round" d="M 1903,5946 L 2053,5946"/>
 <path fill="none" stroke="rgb(179,179,179)" stroke-linejoin="round" d="M 1903,5946 L 2053,5946"/>
 <path fill="none" stroke="rgb(179,179,179)" stroke-linejoin="round" d="M 1903,4834 L 2053,4834"/>
 <path fill="none" stroke="rgb(179,179,179)" stroke-linejoin="round" d="M 1903,4834 L 2053,4834"/>
 <path fill="none" stroke="rgb(179,179,179)" stroke-linejoin="round" d="M 1903,3723 L 2053,3723"/>
 <path fill="none" stroke="rgb(179,179,179)" stroke-linejoin="round" d="M 1903,3723 L 2053,3723"/>
 <path fill="none" stroke="rgb(179,179,179)" stroke-linejoin="round" d="M 1903,2611 L 2053,2611"/>
 <path fill="none" stroke="rgb(179,179,179)" stroke-linejoin="round" d="M 1903,2611 L 2053,2611"/>
 <path fill="none" stroke="rgb(179,179,179)" stroke-linejoin="round" d="M 1903,1499 L 2053,1499"/>
 <path fill="none" stroke="rgb(179,179,179)" stroke-linejoin="round" d="M 1903,1499 L 2053,1499"/>
 <path fill="none" stroke="rgb(179,179,179)" stroke-linejoin="round" d="M 2053,8171 L 2053,1499"/>
 <path fill="rgb(0,69,134)" stroke="none" d="M 12011,8171 L 12453,8171 12453,6084 12011,6084 12011,8171 Z"/>
 <path fill="rgb(0,69,134)" stroke="none" d="M 11125,8171 L 11568,8171 11568,5968 11125,5968 11125,8171 Z"/>
 <path fill="rgb(0,69,134)" stroke="none" d="M 10240,8171 L 10683,8171 10683,5935 10240,5935 10240,8171 Z"/>
 <path fill="rgb(0,69,134)" stroke="none" d="M 9355,8171 L 9797,8171 9797,6063 9355,6063 9355,8171 Z"/>
 <path fill="rgb(0,69,134)" stroke="none" d="M 8470,8171 L 8912,8171 8912,6284 8470,6284 8470,8171 Z"/>
 <path fill="rgb(0,69,134)" stroke="none" d="M 7585,8171 L 8027,8171 8027,6193 7585,6193 7585,8171 Z"/>
 <path fill="rgb(0,69,134)" stroke="none" d="M 6700,8171 L 7143,8171 7143,6366 6700,6366 6700,8171 Z"/>
 <path fill="rgb(0,69,134)" stroke="none" d="M 5815,8171 L 6257,8171 6257,6434 5815,6434 5815,8171 Z"/>
 <path fill="rgb(0,69,134)" stroke="none" d="M 4930,8171 L 5372,8171 5372,6577 4930,6577 4930,8171 Z"/>
 <path fill="rgb(0,69,134)" stroke="none" d="M 4044,8171 L 4487,8171 4487,6661 4044,6661 4044,8171 Z"/>
 <path fill="rgb(0,69,134)" stroke="none" d="M 3159,8171 L 3602,8171 3602,6791 3159,6791 3159,8171 Z"/>
 <path fill="rgb(0,69,134)" stroke="none" d="M 2274,8171 L 2716,8171 2716,6667 2274,6667 2274,8171 Z"/>
 <path fill="rgb(255,66,14)" stroke="none" d="M 12011,6084 L 12453,6084 12453,4872 12011,4872 12011,6084 Z"/>
 <path fill="rgb(255,66,14)" stroke="none" d="M 11125,5968 L 11568,5968 11568,4733 11125,4733 11125,5968 Z"/>
 <path fill="rgb(255,66,14)" stroke="none" d="M 10240,5935 L 10683,5935 10683,4491 10240,4491 10240,5935 Z"/>
 <path fill="rgb(255,66,14)" stroke="none" d="M 9355,6063 L 9797,6063 9797,4717 9355,4717 9355,6063 Z"/>
 <path fill="rgb(255,66,14)" stroke="none" d="M 8470,6284 L 8912,6284 8912,4975 8470,4975 8470,6284 Z"/>
 <path fill="rgb(255,66,14)" stroke="none" d="M 7585,6193 L 8027,6193 8027,4815 7585,4815 7585,6193 Z"/>
 <path fill="rgb(255,66,14)" stroke="none" d="M 6700,6366 L 7143,6366 7143,5095 6700,5095 6700,6366 Z"/>
 <path fill="rgb(255,66,14)" stroke="none" d="M 5815,6434 L 6257,6434 6257,5259 5815,5259 5815,6434 Z"/>
 <path fill="rgb(255,66,14)" stroke="none" d="M 4930,6577 L 5372,6577 5372,5466 4930,5466 4930,6577 Z"/>
 <path fill="rgb(255,66,14)" stroke="none" d="M 4044,6661 L 4487,6661 4487,5640 4044,5640 4044,6661 Z"/>
 <path fill="rgb(255,66,14)" stroke="none" d="M 3159,6791 L 3602,6791 3602,6079 3159,6079 3159,6791 Z"/>
 <path fill="rgb(255,211,32)" stroke="none" d="M 12011,4872 L 12453,4872 12453,3984 12011,3984 12011,4872 Z"/>
 <path fill="rgb(255,211,32)" stroke="none" d="M 11125,4733 L 11568,4733 11568,3746 11125,3746 11125,4733 Z"/>
 <path fill="rgb(255,211,32)" stroke="none" d="M 10240,4491 L 10683,4491 10683,3481 10240,3481 10240,4491 Z"/>
 <path fill="rgb(255,211,32)" stroke="none" d="M 9355,4717 L 9797,4717 9797,3686 9355,3686 9355,4717 Z"/>
 <path fill="rgb(255,211,32)" stroke="none" d="M 8470,4975 L 8912,4975 8912,4055 8470,4055 8470,4975 Z"/>
 <path fill="rgb(255,211,32)" stroke="none" d="M 7585,4815 L 8027,4815 8027,3731 7585,3731 7585,4815 Z"/>
 <path fill="rgb(255,211,32)" stroke="none" d="M 6700,5095 L 7143,5095 7143,4076 6700,4076 6700,5095 Z"/>
 <path fill="rgb(255,211,32)" stroke="none" d="M 5815,5259 L 6257,5259 6257,4277 5815,4277 5815,5259 Z"/>
 <path fill="rgb(255,211,32)" stroke="none" d="M 4930,5466 L 5372,5466 5372,4450 4930,4450 4930,5466 Z"/>
 <path fill="rgb(255,211,32)" stroke="none" d="M 4044,5640 L 4487,5640 4487,4719 4044,4719 4044,5640 Z"/>
 <path fill="rgb(255,211,32)" stroke="none" d="M 3159,6079 L 3602,6079 3602,5267 3159,5267 3159,6079 Z"/>
 <path fill="rgb(255,211,32)" stroke="none" d="M 2274,6667 L 2716,6667 2716,5877 2274,5877 2274,6667 Z"/>
 <path fill="rgb(87,157,28)" stroke="none" d="M 12011,3984 L 12453,3984 12453,3394 12011,3394 12011,3984 Z"/>
 <path fill="rgb(87,157,28)" stroke="none" d="M 11125,3746 L 11568,3746 11568,3035 11125,3035 11125,3746 Z"/>
 <path fill="rgb(87,157,28)" stroke="none" d="M 10240,3481 L 10683,3481 10683,2722 10240,2722 10240,3481 Z"/>
 <path fill="rgb(87,157,28)" stroke="none" d="M 9355,3686 L 9797,3686 9797,2758 9355,2758 9355,3686 Z"/>
 <path fill="rgb(87,157,28)" stroke="none" d="M 8470,4055 L 8912,4055 8912,3122 8470,3122 8470,4055 Z"/>
 <path fill="rgb(87,157,28)" stroke="none" d="M 7585,3731 L 8027,3731 8027,2671 7585,2671 7585,3731 Z"/>
 <path fill="rgb(87,157,28)" stroke="none" d="M 6700,4076 L 7143,4076 7143,3074 6700,3074 6700,4076 Z"/>
 <path fill="rgb(87,157,28)" stroke="none" d="M 5815,4277 L 6257,4277 6257,3374 5815,3374 5815,4277 Z"/>
 <path fill="rgb(87,157,28)" stroke="none" d="M 4930,4450 L 5372,4450 5372,3583 4930,3583 4930,4450 Z"/>
 <path fill="rgb(87,157,28)" stroke="none" d="M 4044,4719 L 4487,4719 4487,3742 4044,3742 4044,4719 Z"/>
 <path fill="rgb(87,157,28)" stroke="none" d="M 3159,5267 L 3602,5267 3602,4628 3159,4628 3159,5267 Z"/>
 <path fill="rgb(87,157,28)" stroke="none" d="M 2274,5877 L 2716,5877 2716,5437 2274,5437 2274,5877 Z"/>
 <path fill="rgb(126,0,33)" stroke="none" d="M 12011,3394 L 12453,3394 12453,2857 12011,2857 12011,3394 Z"/>
 <path fill="rgb(126,0,33)" stroke="none" d="M 11125,3035 L 11568,3035 11568,2327 11125,2327 11125,3035 Z"/>
 <path fill="rgb(126,0,33)" stroke="none" d="M 10240,2722 L 10683,2722 10683,1870 10240,1870 10240,2722 Z"/>
 <path fill="rgb(126,0,33)" stroke="none" d="M 9355,2758 L 9797,2758 9797,2006 9355,2006 9355,2758 Z"/>
 <path fill="rgb(126,0,33)" stroke="none" d="M 8470,3122 L 8912,3122 8912,2395 8470,2395 8470,3122 Z"/>
 <path fill="rgb(126,0,33)" stroke="none" d="M 7585,2671 L 8027,2671 8027,1901 7585,1901 7585,2671 Z"/>
 <path fill="rgb(126,0,33)" stroke="none" d="M 6700,3074 L 7143,3074 7143,2424 6700,2424 6700,3074 Z"/>
 <path fill="rgb(126,0,33)" stroke="none" d="M 5815,3374 L 6257,3374 6257,2681 5815,2681 5815,3374 Z"/>
 <path fill="rgb(126,0,33)" stroke="none" d="M 4930,3583 L 5372,3583 5372,2889 4930,2889 4930,3583 Z"/>
 <path fill="rgb(126,0,33)" stroke="none" d="M 4044,3742 L 4487,3742 4487,3070 4044,3070 4044,3742 Z"/>
 <path fill="rgb(126,0,33)" stroke="none" d="M 3159,4628 L 3602,4628 3602,3986 3159,3986 3159,4628 Z"/>
 <path fill="rgb(126,0,33)" stroke="none" d="M 2274,5437 L 2716,5437 2716,4781 2274,4781 2274,5437 Z"/>
 <text class="TextShape"><tspan class="TextParagraph" font-family="Liberation Sans" font-size="353px" font-weight="400"><tspan class="TextPosition" x="2071" y="8739"><tspan fill="rgb(0,0,0)" stroke="none">14/01</tspan></tspan></tspan></text>
 <text class="TextShape"><tspan class="TextParagraph" font-family="Liberation Sans" font-size="353px" font-weight="400"><tspan class="TextPosition" x="2956" y="8739"><tspan fill="rgb(0,0,0)" stroke="none">14/02</tspan></tspan></tspan></text>
 <text class="TextShape"><tspan class="TextParagraph" font-family="Liberation Sans" font-size="353px" font-weight="400"><tspan class="TextPosition" x="3842" y="8739"><tspan fill="rgb(0,0,0)" stroke="none">14/03</tspan></tspan></tspan></text>
 <text class="TextShape"><tspan class="TextParagraph" font-family="Liberation Sans" font-size="353px" font-weight="400"><tspan class="TextPosition" x="4727" y="8739"><tspan fill="rgb(0,0,0)" stroke="none">14/04</tspan></tspan></tspan></text>
 <text class="TextShape"><tspan class="TextParagraph" font-family="Liberation Sans" font-size="353px" font-weight="400"><tspan class="TextPosition" x="5612" y="8739"><tspan fill="rgb(0,0,0)" stroke="none">14/05</tspan></tspan></tspan></text>
 <text class="TextShape"><tspan class="TextParagraph" font-family="Liberation Sans" font-size="353px" font-weight="400"><tspan class="TextPosition" x="6497" y="8739"><tspan fill="rgb(0,0,0)" stroke="none">14/06</tspan></tspan></tspan></text>
 <text class="TextShape"><tspan class="TextParagraph" font-family="Liberation Sans" font-size="353px" font-weight="400"><tspan class="TextPosition" x="7383" y="8739"><tspan fill="rgb(0,0,0)" stroke="none">14/07</tspan></tspan></tspan></text>
 <text class="TextShape"><tspan class="TextParagraph" font-family="Liberation Sans" font-size="353px" font-weight="400"><tspan class="TextPosition" x="8268" y="8739"><tspan fill="rgb(0,0,0)" stroke="none">14/08</tspan></tspan></tspan></text>
 <text class="TextShape"><tspan class="TextParagraph" font-family="Liberation Sans" font-size="353px" font-weight="400"><tspan class="TextPosition" x="9153" y="8739"><tspan fill="rgb(0,0,0)" stroke="none">14/09</tspan></tspan></tspan></text>
 <text class="TextShape"><tspan class="TextParagraph" font-family="Liberation Sans" font-size="353px" font-weight="400"><tspan class="TextPosition" x="10038" y="8739"><tspan fill="rgb(0,0,0)" stroke="none">14/10</tspan></tspan></tspan></text>
 <text class="TextShape"><tspan class="TextParagraph" font-family="Liberation Sans" font-size="353px" font-weight="400"><tspan class="TextPosition" x="10924" y="8739"><tspan fill="rgb(0,0,0)" stroke="none">14/11</tspan></tspan></tspan></text>
 <text class="TextShape"><tspan class="TextParagraph" font-family="Liberation Sans" font-size="353px" font-weight="400"><tspan class="TextPosition" x="11809" y="8739"><tspan fill="rgb(0,0,0)" stroke="none">14/12</tspan></tspan></tspan></text>
 <text class="TextShape"><tspan class="TextParagraph" font-family="Liberation Sans" font-size="353px" font-weight="400"><tspan class="TextPosition" x="1618" y="8292"><tspan fill="rgb(0,0,0)" stroke="none">0</tspan></tspan></tspan></text>
 <text class="TextShape"><tspan class="TextParagraph" font-family="Liberation Sans" font-size="353px" font-weight="400"><tspan class="TextPosition" x="507" y="7179"><tspan fill="rgb(0,0,0)" stroke="none">2000000</tspan></tspan></tspan></text>
 <text class="TextShape"><tspan class="TextParagraph" font-family="Liberation Sans" font-size="353px" font-weight="400"><tspan class="TextPosition" x="507" y="6067"><tspan fill="rgb(0,0,0)" stroke="none">4000000</tspan></tspan></tspan></text>
 <text class="TextShape"><tspan class="TextParagraph" font-family="Liberation Sans" font-size="353px" font-weight="400"><tspan class="TextPosition" x="507" y="4955"><tspan fill="rgb(0,0,0)" stroke="none">6000000</tspan></tspan></tspan></text>
 <text class="TextShape"><tspan class="TextParagraph" font-family="Liberation Sans" font-size="353px" font-weight="400"><tspan class="TextPosition" x="507" y="3843"><tspan fill="rgb(0,0,0)" stroke="none">8000000</tspan></tspan></tspan></text>
 <text class="TextShape"><tspan class="TextParagraph" font-family="Liberation Sans" font-size="353px" font-weight="400"><tspan class="TextPosition" x="321" y="2731"><tspan fill="rgb(0,0,0)" stroke="none">10000000</tspan></tspan></tspan></text>
 <text class="TextShape"><tspan class="TextParagraph" font-family="Liberation Sans" font-size="353px" font-weight="400"><tspan class="TextPosition" x="321" y="1619"><tspan fill="rgb(0,0,0)" stroke="none">12000000</tspan></tspan></tspan></text>
 <text class="TextShape"><tspan class="TextParagraph" font-family="Liberation Sans" font-size="459px" font-weight="400"><tspan class="TextPosition" x="5447" y="877"><tspan fill="rgb(0,0,0)" stroke="none">Top 5 Twitter Shares 2014</tspan></tspan></tspan></text>
 <path fill="rgb(0,69,134)" stroke="none" d="M 13217,5600 L 13111,5600 13111,5389 13322,5389 13322,5600 13217,5600 Z"/>
 <path fill="rgb(255,66,14)" stroke="none" d="M 13217,5102 L 13111,5102 13111,4891 13322,4891 13322,5102 13217,5102 Z"/>
 <path fill="rgb(255,211,32)" stroke="none" d="M 13217,4604 L 13111,4604 13111,4394 13322,4394 13322,4604 13217,4604 Z"/>
 <path fill="rgb(87,157,28)" stroke="none" d="M 13217,4107 L 13111,4107 13111,3896 13322,3896 13322,4107 13217,4107 Z"/>
 <path fill="rgb(126,0,33)" stroke="none" d="M 13217,3609 L 13111,3609 13111,3398 13322,3398 13322,3609 13217,3609 Z"/>
 <text class="TextShape"><tspan class="TextParagraph" font-family="Liberation Sans" font-size="353px" font-weight="400"><tspan class="TextPosition" x="13422" y="3623"><tspan fill="rgb(0,0,0)" stroke="none">cnn.com</tspan></tspan></tspan></text>
 <text class="TextShape"><tspan class="TextParagraph" font-family="Liberation Sans" font-size="353px" font-weight="400"><tspan class="TextPosition" x="13422" y="4121"><tspan fill="rgb(0,0,0)" stroke="none">abcnews.com</tspan></tspan></tspan></text>
 <text class="TextShape"><tspan class="TextParagraph" font-family="Liberation Sans" font-size="353px" font-weight="400"><tspan class="TextPosition" x="13422" y="4618"><tspan fill="rgb(0,0,0)" stroke="none">mashable.com</tspan></tspan></tspan></text>
 <text class="TextShape"><tspan class="TextParagraph" font-family="Liberation Sans" font-size="353px" font-weight="400"><tspan class="TextPosition" x="13422" y="5116"><tspan fill="rgb(0,0,0)" stroke="none">nytimes.com</tspan></tspan></tspan></text>
 <text class="TextShape"><tspan class="TextParagraph" font-family="Liberation Sans" font-size="353px" font-weight="400"><tspan class="TextPosition" x="13422" y="5614"><tspan fill="rgb(0,0,0)" stroke="none">bbc.co.uk</tspan></tspan></tspan></text>
</svg>