<?xml version="1.0" encoding="UTF-8"?>
<!DOCTYPE svg PUBLIC "-//W3C//DTD SVG 1.1//EN" "http://www.w3.org/Graphics/SVG/1.1/DTD/svg11.dtd">
<svg width="160mm" height="90mm" viewBox="0 0 16000 9000" version="1.1" baseProfile="tiny" xmlns="http://www.w3.org/2000/svg" stroke-width="28.222" stroke-linejoin="round" xml:space="preserve">
 <path fill="rgb(255,255,255)" stroke="none" d="M 8000,8999 L 0,8999 0,0 15999,0 15999,8999 8000,8999 Z"/>
 <path fill="none" stroke="rgb(179,179,179)" stroke-linejoin="round" d="M 7271,8172 L 1867,8172 1867,1500 12675,1500 12675,8172 7271,8172 Z"/>
 <path fill="none" stroke="rgb(179,179,179)" stroke-linejoin="round" d="M 12675,8171 L 1867,8171"/>
 <path fill="none" stroke="rgb(179,179,179)" stroke-linejoin="round" d="M 12675,7429 L 1867,7429"/>
 <path fill="none" stroke="rgb(179,179,179)" stroke-linejoin="round" d="M 12675,6688 L 1867,6688"/>
 <path fill="none" stroke="rgb(179,179,179)" stroke-linejoin="round" d="M 12675,5946 L 1867,5946"/>
 <path fill="none" stroke="rgb(179,179,179)" stroke-linejoin="round" d="M 12675,5205 L 1867,5205"/>
 <path fill="none" stroke="rgb(179,179,179)" stroke-linejoin="round" d="M 12675,4464 L 1867,4464"/>
 <path fill="none" stroke="rgb(179,179,179)" stroke-linejoin="round" d="M 12675,3723 L 1867,3723"/>
 <path fill="none" stroke="rgb(179,179,179)" stroke-linejoin="round" d="M 12675,2981 L 1867,2981"/>
 <path fill="none" stroke="rgb(179,179,179)" stroke-linejoin="round" d="M 12675,2240 L 1867,2240"/>
 <path fill="none" stroke="rgb(179,179,179)" stroke-linejoin="round" d="M 12675,1499 L 1867,1499"/>
 <path fill="none" stroke="rgb(179,179,179)" stroke-linejoin="round" d="M 1867,8321 L 1867,8171"/>
 <path fill="none" stroke="rgb(179,179,179)" stroke-linejoin="round" d="M 1867,8321 L 1867,8171"/>
 <path fill="none" stroke="rgb(179,179,179)" stroke-linejoin="round" d="M 2767,8321 L 2767,8171"/>
 <path fill="none" stroke="rgb(179,179,179)" stroke-linejoin="round" d="M 2767,8321 L 2767,8171"/>
 <path fill="none" stroke="rgb(179,179,179)" stroke-linejoin="round" d="M 3668,8321 L 3668,8171"/>
 <path fill="none" stroke="rgb(179,179,179)" stroke-linejoin="round" d="M 3668,8321 L 3668,8171"/>
 <path fill="none" stroke="rgb(179,179,179)" stroke-linejoin="round" d="M 4569,8321 L 4569,8171"/>
 <path fill="none" stroke="rgb(179,179,179)" stroke-linejoin="round" d="M 4569,8321 L 4569,8171"/>
 <path fill="none" stroke="rgb(179,179,179)" stroke-linejoin="round" d="M 5470,8321 L 5470,8171"/>
 <path fill="none" stroke="rgb(179,179,179)" stroke-linejoin="round" d="M 5470,8321 L 5470,8171"/>
 <path fill="none" stroke="rgb(179,179,179)" stroke-linejoin="round" d="M 6370,8321 L 6370,8171"/>
 <path fill="none" stroke="rgb(179,179,179)" stroke-linejoin="round" d="M 6370,8321 L 6370,8171"/>
 <path fill="none" stroke="rgb(179,179,179)" stroke-linejoin="round" d="M 7271,8321 L 7271,8171"/>
 <path fill="none" stroke="rgb(179,179,179)" stroke-linejoin="round" d="M 7271,8321 L 7271,8171"/>
 <path fill="none" stroke="rgb(179,179,179)" stroke-linejoin="round" d="M 8171,8321 L 8171,8171"/>
 <path fill="none" stroke="rgb(179,179,179)" stroke-linejoin="round" d="M 8171,8321 L 8171,8171"/>
 <path fill="none" stroke="rgb(179,179,179)" stroke-linejoin="round" d="M 9072,8321 L 9072,8171"/>
 <path fill="none" stroke="rgb(179,179,179)" stroke-linejoin="round" d="M 9072,8321 L 9072,8171"/>
 <path fill="none" stroke="rgb(179,179,179)" stroke-linejoin="round" d="M 9972,8321 L 9972,8171"/>
 <path fill="none" stroke="rgb(179,179,179)" stroke-linejoin="round" d="M 9972,8321 L 9972,8171"/>
 <path fill="none" stroke="rgb(179,179,179)" stroke-linejoin="round" d="M 10873,8321 L 10873,8171"/>
 <path fill="none" stroke="rgb(179,179,179)" stroke-linejoin="round" d="M 10873,8321 L 10873,8171"/>
 <path fill="none" stroke="rgb(179,179,179)" stroke-linejoin="round" d="M 11774,8321 L 11774,8171"/>
 <path fill="none" stroke="rgb(179,179,179)" stroke-linejoin="round" d="M 11774,8321 L 11774,8171"/>
 <path fill="none" stroke="rgb(179,179,179)" stroke-linejoin="round" d="M 12675,8321 L 12675,8171"/>
 <path fill="none" stroke="rgb(179,179,179)" stroke-linejoin="round" d="M 12675,8321 L 12675,8171"/>
 <path fill="none" stroke="rgb(179,179,179)" stroke-linejoin="round" d="M 1867,8171 L 12675,8171"/>
 <path fill="none" stroke="rgb(179,179,179)" stroke-linejoin="round" d="M 1717,8171 L 1867,8171"/>
 <path fill="none" stroke="rgb(179,179,179)" stroke-linejoin="round" d="M 1717,8171 L 1867,8171"/>
 <path fill="none" stroke="rgb(179,179,179)" stroke-linejoin="round" d="M 1717,7429 L 1867,7429"/>
 <path fill="none" stroke="rgb(179,179,179)" stroke-linejoin="round" d="M 1717,7429 L 1867,7429"/>
 <path fill="none" stroke="rgb(179,179,179)" stroke-linejoin="round" d="M 1717,6688 L 1867,6688"/>
 <path fill="none" stroke="rgb(179,179,179)" stroke-linejoin="round" d="M 1717,6688 L 1867,6688"/>
 <path fill="none" stroke="rgb(179,179,179)" stroke-linejoin="round" d="M 1717,5946 L 1867,5946"/>
 <path fill="none" stroke="rgb(179,179,179)" stroke-linejoin="round" d="M 1717,5946 L 1867,5946"/>
 <path fill="none" stroke="rgb(179,179,179)" stroke-linejoin="round" d="M 1717,5205 L 1867,5205"/>
 <path fill="none" stroke="rgb(179,179,179)" stroke-linejoin="round" d="M 1717,5205 L 1867,5205"/>
 <path fill="none" stroke="rgb(179,179,179)" stroke-linejoin="round" d="M 1717,4464 L 1867,4464"/>
 <path fill="none" stroke="rgb(179,179,179)" stroke-linejoin="round" d="M 1717,4464 L 1867,4464"/>
 <path fill="none" stroke="rgb(179,179,179)" stroke-linejoin="round" d="M 1717,3723 L 1867,3723"/>
 <path fill="none" stroke="rgb(179,179,179)" stroke-linejoin="round" d="M 1717,3723 L 1867,3723"/>
 <path fill="none" stroke="rgb(179,179,179)" stroke-linejoin="round" d="M 1717,2981 L 1867,2981"/>
 <path fill="none" stroke="rgb(179,179,179)" stroke-linejoin="round" d="M 1717,2981 L 1867,2981"/>
 <path fill="none" stroke="rgb(179,179,179)" stroke-linejoin="round" d="M 1717,2240 L 1867,2240"/>
 <path fill="none" stroke="rgb(179,179,179)" stroke-linejoin="round" d="M 1717,2240 L 1867,2240"/>
 <path fill="none" stroke="rgb(179,179,179)" stroke-linejoin="round" d="M 1717,1499 L 1867,1499"/>
 <path fill="none" stroke="rgb(179,179,179)" stroke-linejoin="round" d="M 1717,1499 L 1867,1499"/>
 <path fill="none" stroke="rgb(179,179,179)" stroke-linejoin="round" d="M 1867,8171 L 1867,1499"/>
 <path fill="rgb(0,69,134)" stroke="none" d="M 11849,8171 L 11999,8171 11999,2608 11849,2608 11849,8171 Z"/>
 <path fill="rgb(0,69,134)" stroke="none" d="M 10948,8171 L 11098,8171 11098,2299 10948,2299 10948,8171 Z"/>
 <path fill="rgb(0,69,134)" stroke="none" d="M 10047,8171 L 10197,8171 10197,2210 10047,2210 10047,8171 Z"/>
 <path fill="rgb(0,69,134)" stroke="none" d="M 9147,8171 L 9297,8171 9297,2552 9147,2552 9147,8171 Z"/>
 <path fill="rgb(0,69,134)" stroke="none" d="M 8246,8171 L 8396,8171 8396,3141 8246,3141 8246,8171 Z"/>
 <path fill="rgb(0,69,134)" stroke="none" d="M 7346,8171 L 7496,8171 7496,2897 7346,2897 7346,8171 Z"/>
 <path fill="rgb(0,69,134)" stroke="none" d="M 6445,8171 L 6595,8171 6595,3359 6445,3359 6445,8171 Z"/>
 <path fill="rgb(0,69,134)" stroke="none" d="M 5545,8171 L 5695,8171 5695,3540 5545,3540 5545,8171 Z"/>
 <path fill="rgb(0,69,134)" stroke="none" d="M 4644,8171 L 4794,8171 4794,3921 4644,3921 4644,8171 Z"/>
 <path fill="rgb(0,69,134)" stroke="none" d="M 3743,8171 L 3893,8171 3893,4146 3743,4146 3743,8171 Z"/>
 <path fill="rgb(0,69,134)" stroke="none" d="M 2842,8171 L 2992,8171 2992,4492 2842,4492 2842,8171 Z"/>
 <path fill="rgb(0,69,134)" stroke="none" d="M 1942,8171 L 2092,8171 2092,4162 1942,4162 1942,8171 Z"/>
 <path fill="rgb(255,66,14)" stroke="none" d="M 11999,8171 L 12149,8171 12149,4939 11999,4939 11999,8171 Z"/>
 <path fill="rgb(255,66,14)" stroke="none" d="M 11098,8171 L 11248,8171 11248,4876 11098,4876 11098,8171 Z"/>
 <path fill="rgb(255,66,14)" stroke="none" d="M 10197,8171 L 10348,8171 10348,4319 10197,4319 10197,8171 Z"/>
 <path fill="rgb(255,66,14)" stroke="none" d="M 9297,8171 L 9447,8171 9447,4581 9297,4581 9297,8171 Z"/>
 <path fill="rgb(255,66,14)" stroke="none" d="M 8396,8171 L 8546,8171 8546,4679 8396,4679 8396,8171 Z"/>
 <path fill="rgb(255,66,14)" stroke="none" d="M 7496,8171 L 7646,8171 7646,4499 7496,4499 7496,8171 Z"/>
 <path fill="rgb(255,66,14)" stroke="none" d="M 6595,8171 L 6746,8171 6746,4782 6595,4782 6595,8171 Z"/>
 <path fill="rgb(255,66,14)" stroke="none" d="M 5695,8171 L 5845,8171 5845,5037 5695,5037 5695,8171 Z"/>
 <path fill="rgb(255,66,14)" stroke="none" d="M 4794,8171 L 4944,8171 4944,5209 4794,5209 4794,8171 Z"/>
 <path fill="rgb(255,66,14)" stroke="none" d="M 3893,8171 L 4043,8171 4043,5447 3893,5447 3893,8171 Z"/>
 <path fill="rgb(255,66,14)" stroke="none" d="M 2992,8171 L 3143,8171 3143,6271 2992,6271 2992,8171 Z"/>
 <path fill="rgb(255,211,32)" stroke="none" d="M 12149,8171 L 12299,8171 12299,5798 12149,5798 12149,8171 Z"/>
 <path fill="rgb(255,211,32)" stroke="none" d="M 11248,8171 L 11398,8171 11398,5537 11248,5537 11248,8171 Z"/>
 <path fill="rgb(255,211,32)" stroke="none" d="M 10348,8171 L 10498,8171 10498,5477 10348,5477 10348,8171 Z"/>
 <path fill="rgb(255,211,32)" stroke="none" d="M 9447,8171 L 9597,8171 9597,5417 9447,5417 9447,8171 Z"/>
 <path fill="rgb(255,211,32)" stroke="none" d="M 8546,8171 L 8696,8171 8696,5714 8546,5714 8546,8171 Z"/>
 <path fill="rgb(255,211,32)" stroke="none" d="M 7646,8171 L 7796,8171 7796,5276 7646,5276 7646,8171 Z"/>
 <path fill="rgb(255,211,32)" stroke="none" d="M 6746,8171 L 6896,8171 6896,5451 6746,5451 6746,8171 Z"/>
 <path fill="rgb(255,211,32)" stroke="none" d="M 5845,8171 L 5995,8171 5995,5549 5845,5549 5845,8171 Z"/>
 <path fill="rgb(255,211,32)" stroke="none" d="M 4944,8171 L 5094,8171 5094,5458 4944,5458 4944,8171 Z"/>
 <path fill="rgb(255,211,32)" stroke="none" d="M 4043,8171 L 4193,8171 4193,5716 4043,5716 4043,8171 Z"/>
 <path fill="rgb(255,211,32)" stroke="none" d="M 3143,8171 L 3293,8171 3293,6006 3143,6006 3143,8171 Z"/>
 <path fill="rgb(255,211,32)" stroke="none" d="M 2242,8171 L 2392,8171 2392,6063 2242,6063 2242,8171 Z"/>
 <path fill="rgb(87,157,28)" stroke="none" d="M 12299,8171 L 12449,8171 12449,6598 12299,6598 12299,8171 Z"/>
 <path fill="rgb(87,157,28)" stroke="none" d="M 11398,8171 L 11549,8171 11549,6274 11398,6274 11398,8171 Z"/>
 <path fill="rgb(87,157,28)" stroke="none" d="M 10498,8171 L 10648,8171 10648,6147 10498,6147 10498,8171 Z"/>
 <path fill="rgb(87,157,28)" stroke="none" d="M 9597,8171 L 9747,8171 9747,5698 9597,5698 9597,8171 Z"/>
 <path fill="rgb(87,157,28)" stroke="none" d="M 8696,8171 L 8846,8171 8846,5683 8696,5683 8696,8171 Z"/>
 <path fill="rgb(87,157,28)" stroke="none" d="M 7796,8171 L 7947,8171 7947,5343 7796,5343 7796,8171 Z"/>
 <path fill="rgb(87,157,28)" stroke="none" d="M 6896,8171 L 7046,8171 7046,5497 6896,5497 6896,8171 Z"/>
 <path fill="rgb(87,157,28)" stroke="none" d="M 5995,8171 L 6145,8171 6145,5763 5995,5763 5995,8171 Z"/>
 <path fill="rgb(87,157,28)" stroke="none" d="M 5094,8171 L 5244,8171 5244,5859 5094,5859 5094,8171 Z"/>
 <path fill="rgb(87,157,28)" stroke="none" d="M 4193,8171 L 4344,8171 4344,5562 4193,5562 4193,8171 Z"/>
 <path fill="rgb(87,157,28)" stroke="none" d="M 3293,8171 L 3443,8171 3443,6466 3293,6466 3293,8171 Z"/>
 <path fill="rgb(87,157,28)" stroke="none" d="M 2392,8171 L 2542,8171 2542,6998 2392,6998 2392,8171 Z"/>
 <path fill="rgb(126,0,33)" stroke="none" d="M 12449,8171 L 12599,8171 12599,6738 12449,6738 12449,8171 Z"/>
 <path fill="rgb(126,0,33)" stroke="none" d="M 11549,8171 L 11699,8171 11699,6282 11549,6282 11549,8171 Z"/>
 <path fill="rgb(126,0,33)" stroke="none" d="M 10648,8171 L 10798,8171 10798,5898 10648,5898 10648,8171 Z"/>
 <path fill="rgb(126,0,33)" stroke="none" d="M 9747,8171 L 9897,8171 9897,6165 9747,6165 9747,8171 Z"/>
 <path fill="rgb(126,0,33)" stroke="none" d="M 8846,8171 L 8996,8171 8996,6232 8846,6232 8846,8171 Z"/>
 <path fill="rgb(126,0,33)" stroke="none" d="M 7947,8171 L 8096,8171 8096,6117 7947,6117 7947,8171 Z"/>
 <path fill="rgb(126,0,33)" stroke="none" d="M 7046,8171 L 7196,8171 7196,6437 7046,6437 7046,8171 Z"/>
 <path fill="rgb(126,0,33)" stroke="none" d="M 6145,8171 L 6295,8171 6295,6324 6145,6324 6145,8171 Z"/>
 <path fill="rgb(126,0,33)" stroke="none" d="M 5244,8171 L 5394,8171 5394,6322 5244,6322 5244,8171 Z"/>
 <path fill="rgb(126,0,33)" stroke="none" d="M 4344,8171 L 4494,8171 4494,6380 4344,6380 4344,8171 Z"/>
 <path fill="rgb(126,0,33)" stroke="none" d="M 3443,8171 L 3593,8171 3593,6457 3443,6457 3443,8171 Z"/>
 <path fill="rgb(126,0,33)" stroke="none" d="M 2542,8171 L 2692,8171 2692,6422 2542,6422 2542,8171 Z"/>
 <text class="TextShape"><tspan class="TextParagraph" font-family="Liberation Sans" font-size="353px" font-weight="400"><tspan class="TextPosition" x="1893" y="8739"><tspan fill="rgb(0,0,0)" stroke="none">14/01</tspan></tspan></tspan></text>
 <text class="TextShape"><tspan class="TextParagraph" font-family="Liberation Sans" font-size="353px" font-weight="400"><tspan class="TextPosition" x="2794" y="8739"><tspan fill="rgb(0,0,0)" stroke="none">14/02</tspan></tspan></tspan></text>
 <text class="TextShape"><tspan class="TextParagraph" font-family="Liberation Sans" font-size="353px" font-weight="400"><tspan class="TextPosition" x="3694" y="8739"><tspan fill="rgb(0,0,0)" stroke="none">14/03</tspan></tspan></tspan></text>
 <text class="TextShape"><tspan class="TextParagraph" font-family="Liberation Sans" font-size="353px" font-weight="400"><tspan class="TextPosition" x="4595" y="8739"><tspan fill="rgb(0,0,0)" stroke="none">14/04</tspan></tspan></tspan></text>
 <text class="TextShape"><tspan class="TextParagraph" font-family="Liberation Sans" font-size="353px" font-weight="400"><tspan class="TextPosition" x="5496" y="8739"><tspan fill="rgb(0,0,0)" stroke="none">14/05</tspan></tspan></tspan></text>
 <text class="TextShape"><tspan class="TextParagraph" font-family="Liberation Sans" font-size="353px" font-weight="400"><tspan class="TextPosition" x="6397" y="8739"><tspan fill="rgb(0,0,0)" stroke="none">14/06</tspan></tspan></tspan></text>
 <text class="TextShape"><tspan class="TextParagraph" font-family="Liberation Sans" font-size="353px" font-weight="400"><tspan class="TextPosition" x="7297" y="8739"><tspan fill="rgb(0,0,0)" stroke="none">14/07</tspan></tspan></tspan></text>
 <text class="TextShape"><tspan class="TextParagraph" font-family="Liberation Sans" font-size="353px" font-weight="400"><tspan class="TextPosition" x="8198" y="8739"><tspan fill="rgb(0,0,0)" stroke="none">14/08</tspan></tspan></tspan></text>
 <text class="TextShape"><tspan class="TextParagraph" font-family="Liberation Sans" font-size="353px" font-weight="400"><tspan class="TextPosition" x="9099" y="8739"><tspan fill="rgb(0,0,0)" stroke="none">14/09</tspan></tspan></tspan></text>
 <text class="TextShape"><tspan class="TextParagraph" font-family="Liberation Sans" font-size="353px" font-weight="400"><tspan class="TextPosition" x="10000" y="8739"><tspan fill="rgb(0,0,0)" stroke="none">14/10</tspan></tspan></tspan></text>
 <text class="TextShape"><tspan class="TextParagraph" font-family="Liberation Sans" font-size="353px" font-weight="400"><tspan class="TextPosition" x="10900" y="8739"><tspan fill="rgb(0,0,0)" stroke="none">14/11</tspan></tspan></tspan></text>
 <text class="TextShape"><tspan class="TextParagraph" font-family="Liberation Sans" font-size="353px" font-weight="400"><tspan class="TextPosition" x="11801" y="8739"><tspan fill="rgb(0,0,0)" stroke="none">14/12</tspan></tspan></tspan></text>
 <text class="TextShape"><tspan class="TextParagraph" font-family="Liberation Sans" font-size="353px" font-weight="400"><tspan class="TextPosition" x="1432" y="8292"><tspan fill="rgb(0,0,0)" stroke="none">0</tspan></tspan></tspan></text>
 <text class="TextShape"><tspan class="TextParagraph" font-family="Liberation Sans" font-size="353px" font-weight="400"><tspan class="TextPosition" x="506" y="7550"><tspan fill="rgb(0,0,0)" stroke="none">500000</tspan></tspan></tspan></text>
 <text class="TextShape"><tspan class="TextParagraph" font-family="Liberation Sans" font-size="353px" font-weight="400"><tspan class="TextPosition" x="321" y="6809"><tspan fill="rgb(0,0,0)" stroke="none">1000000</tspan></tspan></tspan></text>
 <text class="TextShape"><tspan class="TextParagraph" font-family="Liberation Sans" font-size="353px" font-weight="400"><tspan class="TextPosition" x="321" y="6067"><tspan fill="rgb(0,0,0)" stroke="none">1500000</tspan></tspan></tspan></text>
 <text class="TextShape"><tspan class="TextParagraph" font-family="Liberation Sans" font-size="353px" font-weight="400"><tspan class="TextPosition" x="321" y="5326"><tspan fill="rgb(0,0,0)" stroke="none">2000000</tspan></tspan></tspan></text>
 <text class="TextShape"><tspan class="TextParagraph" font-family="Liberation Sans" font-size="353px" font-weight="400"><tspan class="TextPosition" x="321" y="4584"><tspan fill="rgb(0,0,0)" stroke="none">2500000</tspan></tspan></tspan></text>
 <text class="TextShape"><tspan class="TextParagraph" font-family="Liberation Sans" font-size="353px" font-weight="400"><tspan class="TextPosition" x="321" y="3843"><tspan fill="rgb(0,0,0)" stroke="none">3000000</tspan></tspan></tspan></text>
 <text class="TextShape"><tspan class="TextParagraph" font-family="Liberation Sans" font-size="353px" font-weight="400"><tspan class="TextPosition" x="321" y="3101"><tspan fill="rgb(0,0,0)" stroke="none">3500000</tspan></tspan></tspan></text>
 <text class="TextShape"><tspan class="TextParagraph" font-family="Liberation Sans" font-size="353px" font-weight="400"><tspan class="TextPosition" x="321" y="2360"><tspan fill="rgb(0,0,0)" stroke="none">4000000</tspan></tspan></tspan></text>
 <text class="TextShape"><tspan class="TextParagraph" font-family="Liberation Sans" font-size="353px" font-weight="400"><tspan class="TextPosition" x="321" y="1619"><tspan fill="rgb(0,0,0)" stroke="none">4500000</tspan></tspan></tspan></text>
 <text class="TextShape"><tspan class="TextParagraph" font-family="Liberation Sans" font-size="459px" font-weight="400"><tspan class="TextPosition" x="5447" y="877"><tspan fill="rgb(0,0,0)" stroke="none">Top 5 Twitter Shares 2014</tspan></tspan></tspan></text>
 <path fill="rgb(0,69,134)" stroke="none" d="M 13217,3609 L 13111,3609 13111,3398 13322,3398 13322,3609 13217,3609 Z"/>
 <path fill="rgb(255,66,14)" stroke="none" d="M 13217,4107 L 13111,4107 13111,3896 13322,3896 13322,4107 13217,4107 Z"/>
 <path fill="rgb(255,211,32)" stroke="none" d="M 13217,4604 L 13111,4604 13111,4394 13322,4394 13322,4604 13217,4604 Z"/>
 <path fill="rgb(87,157,28)" stroke="none" d="M 13217,5102 L 13111,5102 13111,4891 13322,4891 13322,5102 13217,5102 Z"/>
 <path fill="rgb(126,0,33)" stroke="none" d="M 13217,5600 L 13111,5600 13111,5389 13322,5389 13322,5600 13217,5600 Z"/>
 <text class="TextShape"><tspan class="TextParagraph" font-family="Liberation Sans" font-size="353px" font-weight="400"><tspan class="TextPosition" x="13422" y="3623"><tspan fill="rgb(0,0,0)" stroke="none">bbc.co.uk</tspan></tspan></tspan></text>
 <text class="TextShape"><tspan class="TextParagraph" font-family="Liberation Sans" font-size="353px" font-weight="400"><tspan class="TextPosition" x="13422" y="4121"><tspan fill="rgb(0,0,0)" stroke="none">nytimes.com</tspan></tspan></tspan></text>
 <text class="TextShape"><tspan class="TextParagraph" font-family="Liberation Sans" font-size="353px" font-weight="400"><tspan class="TextPosition" x="13422" y="4618"><tspan fill="rgb(0,0,0)" stroke="none">mashable.com</tspan></tspan></tspan></text>
 <text class="TextShape"><tspan class="TextParagraph" font-family="Liberation Sans" font-size="353px" font-weight="400"><tspan class="TextPosition" x="13422" y="5116"><tspan fill="rgb(0,0,0)" stroke="none">abcnews.com</tspan></tspan></tspan></text>
 <text class="TextShape"><tspan class="TextParagraph" font-family="Liberation Sans" font-size="353px" font-weight="400"><tspan class="TextPosition" x="13422" y="5614"><tspan fill="rgb(0,0,0)" stroke="none">cnn.com</tspan></tspan></tspan></text>
</svg>